Coordinates
version=1
nRows=18
nColumns=28
inDegrees=yes

Units are S.I. units (second, meters, Newtons, ...)
Angles are in degrees.

endheader
time	pelvis_tilt	pelvis_list	pelvis_rotation	pelvis_tx	pelvis_ty	pelvis_tz	hip_flexion_r	hip_adduction_r	hip_rotation_r	knee_angle_r	ankle_angle_r	subtalar_angle_r	mtp_angle_r	hip_flexion_l	hip_adduction_l	hip_rotation_l	knee_angle_l	socket_flexion	socket_adduction	socket_rotation	socket_tx	socket_ty	socket_tz	foot_flex	lumbar_extension	lumbar_bending	lumbar_rotation
      0.00000000	      1.56915503	     -5.41697611	     -9.30850847	     -0.86513166	      0.99525659	      0.29799804	    -27.36484788	      6.19679242	      3.98095451	     -3.34821685	     12.64806311	     -5.47902691	      3.54239330	     25.70865400	     -8.90945477	     -3.70909024	     -9.47360326	     -4.12513780	      0.00000000	      0.00000000	      0.00000000	     -0.00257213	      0.00000000	     -0.67255270	    -12.83822074	      2.27234209	     11.57950696
      0.00416667	      1.50500457	     -5.44091054	     -9.22370479	     -0.85936990	      0.99449126	      0.29753745	    -27.48376173	      6.21502542	      4.06698245	     -3.57187694	     12.59420474	     -5.47262073	      3.53547394	     25.52823800	     -8.82590611	     -3.66413803	     -9.50735584	     -4.14506148	      0.00000000	      0.00000000	      0.00000000	     -0.00289194	      0.00000000	     -0.75688502	    -12.66915379	      2.28782054	     11.58062224
      0.00833333	      1.46730743	     -5.60518429	     -9.36295721	     -0.85365207	      0.99399046	      0.29725833	    -27.42975379	      6.27415950	      4.21843089	     -4.21336666	     12.31596103	     -5.78811948	      3.55149529	     24.98093821	     -8.95750392	     -3.61647681	     -8.75454637	     -3.73837840	      0.00000000	      0.00000000	      0.00000000	     -0.00358701	      0.00000000	     -1.25035065	    -12.63792255	      2.44741360	     11.74456951
      0.01250000	      1.40400811	     -5.63346493	     -9.28342644	     -0.84739331	      0.99321897	      0.29678080	    -27.53970930	      6.29333409	      4.27599196	     -4.48935267	     12.24694885	     -5.80555101	      3.54388099	     24.76649252	     -8.87302726	     -3.60024788	     -8.79288401	     -3.77742348	      0.00000000	      0.00000000	      0.00000000	     -0.00399851	      0.00000000	     -1.36351184	    -12.45231899	      2.47587462	     11.74413100
      0.01666667	      1.37786589	     -5.74712490	     -9.36437189	     -0.84137974	      0.99267375	      0.29637309	    -27.38712768	      6.32288192	      4.15080314	     -5.35126173	     11.94426604	     -6.07807124	      3.52799606	     24.39884319	     -8.92841254	     -3.61250438	     -8.59458152	     -3.71619623	      0.00000000	      0.00000000	      0.00000000	     -0.00455886	      0.00000000	     -1.88057121	    -12.42923337	      2.59039690	     11.76734512
      0.02083333	      1.31971806	     -5.81404761	     -9.35538880	     -0.83503200	      0.99200613	      0.29591808	    -27.35976072	      6.35047928	      4.18365963	     -5.91977759	     11.75745853	     -6.20061259	      3.53311682	     24.09624373	     -8.90686213	     -3.55477626	     -8.47108874	     -3.68481913	      0.00000000	      0.00000000	      0.00000000	     -0.00511780	      0.00000000	     -2.25453204	    -12.30851119	      2.64760779	     11.78761284
      0.02500000	      1.25255380	     -5.91780431	     -9.38101847	     -0.82856013	      0.99135297	      0.29546123	    -27.27189134	      6.39669002	      4.17809865	     -6.61027807	     11.52590551	     -6.40514781	      3.55869314	     23.74924231	     -8.93160791	     -3.53500973	     -8.23978075	     -3.56692152	      0.00000000	      0.00000000	      0.00000000	     -0.00579492	      0.00000000	     -2.56736049	    -12.18017214	      2.76785760	     11.82921244
      0.02916667	      1.17456078	     -6.00361545	     -9.39701484	     -0.82197936	      0.99072506	      0.29499680	    -27.17618279	      6.43632085	      4.21310541	     -7.28580930	     11.27927415	     -6.59129908	      3.58968951	     23.40910963	     -8.93565758	     -3.49400839	     -8.00543446	     -3.44340929	      0.00000000	      0.00000000	      0.00000000	     -0.00651037	      0.00000000	     -2.90432432	    -12.03028383	      2.85611656	     11.86863675
      0.03333333	      1.11219350	     -6.03246945	     -9.30201267	     -0.81502036	      0.99001738	      0.29449887	    -27.26308216	      6.46580386	      4.30673565	     -7.64893140	     11.18287553	     -6.62083437	      3.59017134	     23.13817003	     -8.84661178	     -3.44408594	     -8.02117101	     -3.45526813	      0.00000000	      0.00000000	      0.00000000	     -0.00724056	      0.00000000	     -3.00772327	    -11.80036586	      2.88613803	     11.87160804
      0.03750000	      0.96822743	     -6.10111257	     -9.76641786	     -0.80824065	      0.98968488	      0.29469384	    -26.95830501	      6.32598656	      4.76879616	     -8.60760144	     10.36306807	     -7.58119629	      4.38269713	     22.22902171	     -9.00306053	     -3.71918065	     -6.31420707	     -2.42044668	      0.00000000	      0.00000000	      0.00000000	     -0.00829870	      0.00000000	     -3.48551383	    -11.58294591	      2.90731702	     12.33946754
      0.04166667	      0.96945317	     -6.15070158	     -9.71456159	     -0.80156501	      0.98925557	      0.29418151	    -26.87607419	      6.35154520	      4.73877536	     -9.38168488	     10.03371407	     -7.75393224	      4.40118329	     21.88215160	     -8.94357204	     -3.64439883	     -6.28471298	     -2.40264006	      0.00000000	      0.00000000	      0.00000000	     -0.00905361	      0.00000000	     -3.81830749	    -11.52171727	      2.92911077	     12.30040870
      0.04583333	      0.94565509	     -6.18054994	     -9.68479139	     -0.79486753	      0.98886219	      0.29370851	    -26.74747373	      6.35297592	      4.72522366	    -10.19183351	      9.67271298	     -7.95261901	      4.41722262	     21.53655992	     -8.88223923	     -3.55745589	     -6.20153784	     -2.34774445	      0.00000000	      0.00000000	      0.00000000	     -0.00978731	      0.00000000	     -4.10513543	    -11.41769165	      2.93725287	     12.25746428
      0.05000000	      0.91530053	     -6.19297334	     -9.66102622	     -0.78814680	      0.98851868	      0.29326058	    -26.58984358	      6.34278963	      4.73634445	    -11.01660378	      9.29319550	     -8.14793528	      4.42030938	     21.19710832	     -8.80875561	     -3.45868776	     -6.12740197	     -2.27360725	      0.00000000	      0.00000000	      0.00000000	     -0.01054159	      0.00000000	     -4.36977108	    -11.29407109	      2.92115101	     12.21068612
      0.05416667	      0.67565194	     -6.13063238	     -9.81288114	     -0.78089954	      0.98807127	      0.29313033	    -26.21818394	      6.23812886	      4.89679601	    -11.83961522	      8.54271734	     -8.95610704	      5.07614673	     20.73718669	     -8.73681817	     -3.60670947	     -5.24121953	     -1.69185909	      0.00000000	      0.00000000	      0.00000000	     -0.01142851	      0.00000000	     -4.58234249	    -10.84978286	      2.86874692	     12.27037814
      0.05833333	      0.83941324	     -6.05269844	     -9.90294334	     -0.77407036	      0.98822631	      0.29292459	    -26.27110545	      6.06326920	      5.10072856	    -12.57902436	      7.35811017	     -9.77584081	      7.09358319	     19.99047824	     -8.58143250	     -3.76784706	     -4.69360961	     -1.31555499	      0.00000000	      0.00000000	      0.00000000	     -0.01216766	      0.00000000	     -4.79077674	    -10.92431195	      2.68090609	     12.40135213
      0.06250000	      0.85616651	     -6.02052089	     -9.81346321	     -0.76742130	      0.98815816	      0.29242129	    -26.08341657	      6.04298629	      5.11803260	    -13.49729511	      6.95336937	     -9.86789867	      7.05518821	     19.68253814	     -8.44732411	     -3.63709188	     -4.77238314	     -1.30282899	      0.00000000	      0.00000000	      0.00000000	     -0.01284675	      0.00000000	     -5.01170269	    -10.86590957	      2.59528937	     12.32111323
      0.06666667	      0.85582620	     -5.95705370	     -9.78362262	     -0.76069722	      0.98812157	      0.29192177	    -25.74438897	      5.94362103	      4.86648625	    -14.63325489	      6.36475128	    -10.14316690	      7.02580204	     19.36780411	     -8.29319668	     -3.67673226	     -4.81408703	     -1.22369623	      0.00000000	      0.00000000	      0.00000000	     -0.01359773	      0.00000000	     -5.18110475	    -10.75896709	      2.51755210	     12.19501282
      0.07083333	      0.86226215	     -5.84818220	     -9.68361672	     -0.75408969	      0.98820807	      0.29149044	    -25.48917681	      5.87235342	      4.91782350	    -15.60235238	      5.87206311	    -10.27343103	      6.99098031	     19.08250815	     -8.09256633	     -3.53533978	     -4.87668382	     -1.15728939	      0.00000000	      0.00000000	      0.00000000	     -0.01412086	      0.00000000	     -5.33597740	    -10.67230251	      2.33528725	     12.09655432
